<svg width="84" height="84" viewBox="0 0 84 84" fill="none" xmlns="http://www.w3.org/2000/svg">
<path d="M42 2C47.2529 2 52.4543 3.03463 57.3073 5.04482C62.1604 7.05501 66.5699 10.0014 70.2843 13.7157C73.9986 17.4301 76.945 21.8396 78.9552 26.6927C80.9654 31.5457 82 36.7471 82 42C82 47.2529 80.9654 52.4543 78.9552 57.3073C76.945 62.1604 73.9986 66.5699 70.2843 70.2843C66.5699 73.9986 62.1604 76.945 57.3073 78.9552C52.4543 80.9654 47.2529 82 42 82C36.7471 82 31.5457 80.9654 26.6926 78.9552C21.8396 76.945 17.4301 73.9986 13.7157 70.2843C10.0014 66.5699 7.055 62.1603 5.04481 57.3073C3.03463 52.4543 2 47.2529 2 42C2 36.7471 3.03464 31.5457 5.04483 26.6926C7.05502 21.8396 10.0014 17.4301 13.7157 13.7157C17.4301 10.0014 21.8397 7.05499 26.6927 5.04481C31.5457 3.03462 36.7472 2 42 2L42 2Z" stroke="#DDDDE3" stroke-width="3" stroke-linecap="round"/>
<circle cx="42" cy="42" r="32" fill="#0099FF"/>
<path d="M34.7473 54H49.0513V50.064H41.1473L41.1153 49.968L45.2113 45.68C48.0593 42.736 48.8593 40.784 48.8593 38.288C48.8593 34.224 45.5313 31.792 41.8513 31.792C38.1713 31.792 35.8673 33.616 34.5872 35.952L37.6913 38.16C38.6513 36.56 39.9633 35.824 41.5312 35.824C43.2273 35.824 44.4433 37.104 44.4433 38.8C44.4433 40.56 43.2913 42.032 41.4993 43.888L34.6833 51.152L34.7473 54Z" fill="white"/>
</svg>
