<svg width="84" height="84" viewBox="0 0 84 84" fill="none" xmlns="http://www.w3.org/2000/svg">
<path d="M42 2C47.2529 2 52.4543 3.03463 57.3073 5.04482C62.1604 7.05501 66.5699 10.0014 70.2843 13.7157C73.9986 17.4301 76.945 21.8396 78.9552 26.6927C80.9654 31.5457 82 36.7471 82 42C82 47.2529 80.9654 52.4543 78.9552 57.3073C76.945 62.1604 73.9986 66.5699 70.2843 70.2843C66.5699 73.9986 62.1604 76.945 57.3073 78.9552C52.4543 80.9654 47.2529 82 42 82C36.7471 82 31.5457 80.9654 26.6926 78.9552C21.8396 76.945 17.4301 73.9986 13.7157 70.2843C10.0014 66.5699 7.055 62.1603 5.04481 57.3073C3.03463 52.4543 2 47.2529 2 42C2 36.7471 3.03464 31.5457 5.04483 26.6926C7.05502 21.8396 10.0014 17.4301 13.7157 13.7157C17.4301 10.0014 21.8397 7.05499 26.6927 5.04481C31.5457 3.03462 36.7472 2 42 2L42 2Z" stroke="#DDDDE3" stroke-width="3" stroke-linecap="round"/>
<circle cx="42" cy="42" r="32" fill="#0099FF"/>
<path d="M41.8401 54.288C46.0961 54.288 49.2641 51.824 49.2641 48.016C49.2641 45.456 47.8881 43.632 45.7761 42.672V42.576C47.5681 41.52 48.6241 39.76 48.6241 37.648C48.6241 33.904 45.4561 31.76 41.5521 31.76C38.3201 31.76 35.7921 33.392 34.7681 35.664L38.2561 37.552C38.8961 36.432 39.8241 35.696 41.4561 35.696C43.0561 35.696 44.3361 36.784 44.3361 38.352C44.3361 39.76 43.4721 40.944 41.5201 40.944H39.6001V44.464H41.1361C43.5681 44.464 44.7841 45.84 44.7841 47.44C44.7841 49.232 43.3121 50.352 41.5201 50.352C39.5361 50.352 38.3201 49.424 37.7121 47.856L33.9681 49.424C35.0241 52.208 37.9361 54.288 41.8401 54.288Z" fill="white"/>
</svg>
