<svg width="24" height="24" viewBox="0 0 24 24" fill="none" xmlns="http://www.w3.org/2000/svg">
<path d="M3 18.4097C3 16.7286 3 15.888 3.32029 15.1365C3.64058 14.385 4.24697 13.8029 5.45975 12.6386L12.9709 5.42795C13.2432 5.16655 13.3793 5.03585 13.5045 4.9388C14.6512 4.04972 16.2699 4.10882 17.3488 5.07916C17.4666 5.18507 17.5928 5.32535 17.8453 5.60592C18.0793 5.86589 18.1963 5.99588 18.285 6.11683C19.0943 7.2201 19.0546 8.7312 18.1884 9.79041C18.0935 9.90653 17.9698 10.0302 17.7225 10.2775L10.3431 17.6568C9.18702 18.813 8.60896 19.391 7.87388 19.6955C7.1388 20 6.32129 20 4.68629 20H3V18.4097Z" stroke="#37C99E" stroke-width="1.8" stroke-linecap="round" stroke-linejoin="round"/>
<path d="M11.5 7.5L15.5 11.5" stroke="#37C99E" stroke-width="1.8"/>
<path d="M19 20H16H13" stroke="#37C99E" stroke-width="1.8" stroke-linecap="round" stroke-linejoin="round"/>
</svg>
