<svg width="37" height="39" viewBox="0 0 37 39" fill="none" xmlns="http://www.w3.org/2000/svg">
<path d="M33 14V20.7712C33 24.176 33 25.8785 32.1867 27.277C31.3733 28.6755 29.8936 29.5174 26.9343 31.2012L24.4343 32.6236C21.5364 34.2724 20.0874 35.0968 18.5 35.0968C16.9126 35.0968 15.4636 34.2724 12.5657 32.6236L10.0657 31.2012C7.10636 29.5174 5.62668 28.6755 4.81334 27.277C4 25.8785 4 24.176 4 20.7712V18.2288C4 14.824 4 13.1215 4.81334 11.723C5.62668 10.3245 7.10636 9.48259 10.0657 7.79882L12.5657 6.37641C15.4636 4.72759 16.9126 3.90319 18.5 3.90319C20.0874 3.90319 21.5364 4.72759 24.4343 6.37641L25.75 7.125" stroke="#0070FF" stroke-width="4" stroke-linecap="round"/>
<path d="M33 14L19.7699 21.2164C18.8745 21.7048 17.7922 21.7048 16.8968 21.2164L11 18" stroke="#37C99E" stroke-width="4" stroke-linecap="round" stroke-linejoin="round"/>
</svg>
