<svg width="36" height="36" viewBox="0 0 36 36" fill="none" xmlns="http://www.w3.org/2000/svg">
<path fill-rule="evenodd" clip-rule="evenodd" d="M3.5 7.5C3.5 5.29086 5.29086 3.5 7.5 3.5H28.5C30.7091 3.5 32.5 5.29086 32.5 7.5V17.7C32.5 19.9091 30.7091 21.7 28.5 21.7H7.5C5.29086 21.7 3.5 19.9091 3.5 17.7V7.5ZM7.5 5.5C6.39543 5.5 5.5 6.39543 5.5 7.5V17.7C5.5 18.8046 6.39543 19.7 7.5 19.7H28.5C29.6046 19.7 30.5 18.8046 30.5 17.7V7.5C30.5 6.39543 29.6046 5.5 28.5 5.5H7.5ZM14.3008 12.6C14.3008 10.5565 15.9573 8.89999 18.0008 8.89999C20.0442 8.89999 21.7008 10.5565 21.7008 12.6C21.7008 14.6434 20.0442 16.3 18.0008 16.3C15.9573 16.3 14.3008 14.6434 14.3008 12.6ZM18.0008 10.9C17.0619 10.9 16.3008 11.6611 16.3008 12.6C16.3008 13.5389 17.0619 14.3 18.0008 14.3C18.9397 14.3 19.7008 13.5389 19.7008 12.6C19.7008 11.6611 18.9397 10.9 18.0008 10.9ZM4.5 25.1C3.94772 25.1 3.5 25.5477 3.5 26.1C3.5 26.6523 3.94772 27.1 4.5 27.1H31.5C32.0523 27.1 32.5 26.6523 32.5 26.1C32.5 25.5477 32.0523 25.1 31.5 25.1H4.5ZM4.5 31.4C3.94772 31.4 3.5 31.8477 3.5 32.4C3.5 32.9523 3.94772 33.4 4.5 33.4H31.5C32.0523 33.4 32.5 32.9523 32.5 32.4C32.5 31.8477 32.0523 31.4 31.5 31.4H4.5ZM25.1992 12.6C25.1992 12.103 25.6022 11.7 26.0992 11.7C26.5963 11.7 26.9992 12.103 26.9992 12.6C26.9992 13.0971 26.5963 13.5 26.0992 13.5C25.6022 13.5 25.1992 13.0971 25.1992 12.6ZM9.9 11.7C9.40294 11.7 9 12.1029 9 12.6C9 13.0971 9.40294 13.5 9.9 13.5C10.3971 13.5 10.8 13.0971 10.8 12.6C10.8 12.1029 10.3971 11.7 9.9 11.7Z" fill="#141A33"/>
</svg>
