<svg width="37" height="36" viewBox="0 0 37 36" fill="none" xmlns="http://www.w3.org/2000/svg">
<path d="M21.7184 2.61972C21.528 2.67035 21.3978 2.75231 21.3448 2.85597C21.3255 2.89454 21.3014 3.08017 21.2845 3.30677C21.0917 5.98026 20.6746 7.82204 20.0044 8.95508C19.6645 9.52883 19.3318 9.88802 18.5942 10.4738C17.7745 11.1271 17.3213 11.6093 17.0778 12.089C17.0417 12.1613 16.9043 12.4868 16.7693 12.8122C16.046 14.5913 15.4072 15.9028 14.7539 16.9562C14.1151 17.9808 13.4328 18.7378 12.8663 19.0463C12.5867 19.1982 12.4324 19.2295 11.9864 19.2295H11.334V25.5577C11.334 29.0387 11.334 31.8858 11.334 31.8858C11.334 31.8858 11.7526 31.9123 11.9213 31.9436C12.0925 31.9774 12.5264 32.0594 12.8856 32.1245C13.2472 32.192 13.833 32.3004 14.1874 32.3679C18.3917 33.149 18.0156 33.0863 18.8087 33.1514C19.9779 33.2454 21.2869 33.3274 22.5839 33.3853C23.4734 33.4238 25.9541 33.4238 26.5616 33.3853C27.8031 33.3033 28.5528 33.1683 28.9964 32.9465C29.7775 32.5536 30.7851 31.6086 31.1009 30.9745L31.2022 30.7696L31.2167 29.9596C31.2263 29.3666 31.2384 29.1279 31.2625 29.0653C31.3324 28.882 31.4891 28.694 31.9977 28.1829C32.5667 27.614 32.7354 27.4139 32.8656 27.1487C33.0584 26.7558 33.0295 26.5316 32.6607 25.6179C32.4172 25.0104 32.3232 24.7019 32.3232 24.4994C32.3232 24.2511 32.4775 23.9979 32.9741 23.4362C33.5261 22.8095 33.678 22.5467 33.6394 22.2767C33.6153 22.0959 33.49 21.8331 33.2079 21.3703C32.7209 20.5675 32.5908 20.2661 32.6221 20.0275C32.6462 19.8515 32.7571 19.6562 33.0609 19.2536C33.5984 18.5425 33.6684 18.4027 33.6394 18.082C33.5936 17.5686 33.1838 16.7417 32.6534 16.0836C32.4534 15.8353 32.0628 15.4568 31.8772 15.3338C31.4698 15.059 30.8623 14.9505 29.2013 14.8637C28.6179 14.8324 25.9854 14.8203 24.2593 14.842L23.2709 14.8541L23.2131 14.6853C23.0974 14.3527 23.1432 13.8127 23.3409 13.1859C23.5361 12.5687 23.7724 12.0287 24.4257 10.7245C24.6836 10.2062 24.9416 9.67829 24.9946 9.54811C25.1995 9.05392 25.3514 8.49222 25.4454 7.86543C25.4984 7.52793 25.5057 6.32981 25.4575 6.03088C25.2815 4.93642 24.9922 4.24695 24.4618 3.6732C23.7483 2.89936 22.4947 2.41722 21.7184 2.61972Z" stroke="#141A33" stroke-width="2"/>
<rect x="3.33398" y="17" width="8" height="17" rx="2" stroke="#141A33" stroke-width="2"/>
</svg>
