<svg width="24" height="24" viewBox="0 0 24 24" fill="none" xmlns="http://www.w3.org/2000/svg">
<rect width="24" height="24" rx="12" fill="#00AFCA"/>
<path d="M12.0035 13.4516C13.672 13.4516 15.0245 12.099 15.0245 10.4305C15.0245 8.762 13.672 7.40942 12.0035 7.40942C10.335 7.40942 8.98242 8.762 8.98242 10.4305C8.98242 12.099 10.335 13.4516 12.0035 13.4516Z" fill="#FEC50C"/>
<path d="M12.0028 6.99733C12.1825 6.99508 12.2498 6.88282 12.2498 6.7481C12.2498 6.56848 12.0028 5.71301 12.0028 5.71301C12.0028 5.71301 11.7559 6.56848 11.7559 6.7481C11.7559 6.88282 11.8232 6.99733 12.0028 6.99733Z" fill="#FEC50C"/>
<path d="M11.4645 16.9747C11.3837 16.9792 11.3051 16.9897 11.228 17.0144C11.1224 17.0286 11.0214 17.0653 10.9166 17.0825L10.8747 17.0892L10.8044 17.096C10.8089 17.1154 10.8118 17.1349 10.8118 17.1544C10.8118 17.1746 10.8096 17.194 10.8044 17.2105C10.7999 17.2262 10.7856 17.2457 10.7744 17.2576C10.7595 17.2741 10.7437 17.2883 10.725 17.2973C10.7071 17.3063 10.6868 17.31 10.6666 17.3115C10.6464 17.3123 10.6255 17.3115 10.606 17.304C10.5858 17.2973 10.5671 17.2846 10.5499 17.2696C10.5289 17.2748 10.5072 17.2786 10.487 17.2808C10.4661 17.2831 10.4466 17.2831 10.4279 17.2808C10.4069 17.2748 10.3852 17.2681 10.365 17.2599C10.3447 17.2515 10.3251 17.2412 10.3067 17.2292C10.2303 17.2741 10.145 17.3168 10.0986 17.3953C10.0724 17.4313 10.0671 17.4724 10.0612 17.5151C10.0574 17.5675 10.0709 17.6229 10.0933 17.6715C10.1016 17.6857 10.1083 17.6199 10.1338 17.6109C10.1764 17.5757 10.2296 17.5503 10.2835 17.5361C10.3291 17.5128 10.3231 17.5375 10.3044 17.5735C10.2999 17.5922 10.2745 17.6633 10.3089 17.6274C10.4608 17.56 10.6292 17.5465 10.7931 17.5338C11.0311 17.5091 11.2699 17.5039 11.5086 17.5009C11.7332 17.5039 11.9577 17.5069 12.1822 17.5151C12.2893 17.5181 12.397 17.542 12.5026 17.5241C12.528 17.5173 12.5677 17.5159 12.5827 17.5009C12.5347 17.4732 12.4786 17.4724 12.4255 17.4657H11.9974C11.8784 17.4537 11.7541 17.4522 11.6419 17.4073C11.6119 17.3953 11.5842 17.3669 11.5558 17.3976C11.5131 17.4126 11.4675 17.423 11.4226 17.426C11.344 17.432 11.2654 17.4156 11.1928 17.3864C11.2452 17.3138 11.3081 17.2501 11.3657 17.1828C11.3193 17.1753 11.2744 17.1656 11.228 17.1544C11.3096 17.0982 11.3851 17.0346 11.4645 16.9747Z" fill="#FEC50C"/>
<path d="M14.9615 17.7503C14.7989 17.848 14.6747 17.6748 14.5387 17.6229C14.4416 17.6756 14.4325 17.8521 14.3418 17.9357C14.2333 18.0592 14.1002 17.9012 14.1101 17.7793C13.9803 17.8887 13.9146 18.1368 13.7047 18.1036C13.6052 18.0225 13.5313 17.8521 13.4553 18.0461C13.3934 18.1409 13.2283 18.2758 13.1429 18.1326C13.1164 18.0062 13.0531 17.8576 12.9843 18.0583C12.9371 18.2003 12.7856 18.3048 12.639 18.2426C12.5587 18.177 12.7033 17.9344 12.6012 17.9517C12.4485 18.0526 12.3597 18.3033 12.1467 18.2832C12.0639 18.1903 12.1969 18.033 12.1061 17.9299C11.999 18.0674 11.8802 18.2687 11.6949 18.2832C11.6053 18.2106 11.6984 18.0025 11.6412 17.9717C11.4511 18.0857 11.2505 18.2889 11.0114 18.2253C11.1046 17.8689 11.4939 17.7438 11.8214 17.7161C12.3847 17.6468 12.9773 17.7741 13.5194 17.5708C13.6069 17.5175 13.8191 17.4419 13.7436 17.3183C13.6766 17.2207 13.9176 17.2589 13.9408 17.1449C13.9265 17.0005 14.0514 17.0204 14.1735 17.0078C14.7208 16.9841 15.2615 17.0994 15.8071 17.119C15.8484 17.3849 15.5534 17.5716 15.316 17.4895C15.2025 17.5079 15.0325 17.2287 15.0658 17.4318C15.0429 17.5384 15.0589 17.6792 14.9615 17.7504V17.7503ZM10.3048 17.2059C10.4315 17.3219 10.5203 17.1841 10.6388 17.1337C11.036 16.9971 11.3826 16.7583 11.7243 16.5197C11.9313 16.3484 12.1108 16.1263 12.3888 16.0707C12.9312 15.9067 13.5077 15.9266 14.0522 15.7753C14.4667 15.2077 15.1709 15.0052 15.7608 14.6789C15.8932 14.6377 15.9444 14.5287 15.9867 14.4084C16.2118 14.0529 16.5186 13.738 16.8813 13.5228C17.053 13.4291 17.2577 13.3751 17.452 13.4179C17.4381 13.6494 17.3054 13.8545 17.1451 14.0145C17.2762 14.0116 17.389 13.9288 17.5215 13.9334C17.567 14.171 17.3105 14.2953 17.174 14.4431C17.25 14.4608 17.5412 14.4828 17.3825 14.559C17.1803 14.6993 16.9494 14.7956 16.7628 14.9586C16.935 14.9895 16.9546 15.0261 16.7795 15.0884C16.6847 15.1527 16.5024 15.1751 16.4848 15.3003C16.6149 15.3803 16.4248 15.4597 16.3515 15.4857C16.2114 15.5183 16.0642 15.5792 16.2504 15.6857C16.1799 15.792 16.0289 15.8147 15.9056 15.8042C15.943 15.9248 15.9971 16.0597 15.8406 16.1129C15.4898 16.3781 15.0781 16.571 14.6371 16.6151C15.188 16.6575 15.7554 16.5552 16.2262 16.2556C16.2883 16.1821 16.6142 16.1032 16.432 16.0414C16.3461 16.0057 16.1622 15.966 16.1497 15.9006C16.4047 15.7433 16.726 15.7992 17.0002 15.7058C17.0073 15.617 16.7916 15.6417 16.7112 15.6214C16.5194 15.6057 16.5306 15.5568 16.7156 15.5386C16.9496 15.4767 17.2146 15.4645 17.4114 15.3119C17.2512 15.2377 17.0496 15.303 16.8786 15.2424C17.1685 15.1155 17.5105 15.1028 17.7706 14.9122C17.889 14.7804 17.6188 14.8216 17.54 14.8248C17.3795 14.8528 17.3053 14.7759 17.4877 14.7092C17.7991 14.4796 18.1934 14.3304 18.4122 13.9975C18.464 13.923 18.5342 13.6985 18.3689 13.7792C18.1516 13.8515 17.9603 14.0958 17.7127 14.0203C18.2006 13.6421 18.665 13.2115 18.9985 12.6881C19.0157 12.5372 18.7788 12.5209 18.7171 12.6394C18.4036 12.9414 18.1198 13.298 17.7184 13.4874C18.1029 13.1164 18.4207 12.677 18.698 12.2217C18.7574 12.0863 18.9172 11.9234 18.8305 11.773C18.6907 11.6573 18.5159 11.7632 18.4432 11.9017C18.1995 12.2198 18.0145 12.5912 17.7011 12.8503C17.9754 12.3267 18.2595 11.7693 18.2664 11.1653C18.2656 11.0409 18.2406 10.8578 18.0718 10.881C17.9379 10.905 17.9697 11.1054 17.9145 11.2067C17.793 11.6193 17.736 12.0662 17.4868 12.4275C17.5428 12.0922 17.6409 11.7427 17.5656 11.4041C17.5304 11.2528 17.2861 11.3179 17.3176 11.4676C17.0256 12.9464 16.0334 14.2397 14.7357 14.9878C14.1415 15.324 13.4778 15.5408 12.8026 15.639C12.6209 15.6788 12.4245 15.6554 12.2509 15.7174C11.8302 16.0399 11.5755 16.5797 11.0428 16.7487C10.8041 16.8674 10.4928 16.8915 10.3221 17.1132C10.3074 17.1416 10.3042 17.1745 10.3048 17.2059" fill="#FEC50C"/>
<path d="M11.8993 15.7058C11.8207 15.8485 11.7744 16.0125 11.6734 16.1402C11.3694 15.8635 10.9286 15.8727 10.5429 15.8543C10.2246 15.8373 9.87847 15.8079 9.63219 15.5809C9.3731 15.3687 9.16161 15.0931 8.8721 14.9209C8.60785 14.8491 8.34147 14.7592 8.12902 14.578C7.67502 14.208 7.41501 13.6589 6.97138 13.2773C6.8868 13.194 6.78706 13.1295 6.69231 13.0589C6.60227 13.0808 6.64303 13.2751 6.53285 13.1761C6.4729 13.1334 6.32296 13.1292 6.30944 13.1888C6.44508 13.3676 6.58085 13.5716 6.59965 13.8002C6.50714 13.8097 6.34267 13.7807 6.29682 13.8151C6.41966 13.9993 6.57713 14.1626 6.75603 14.2926C6.67022 14.3064 6.50112 14.2989 6.46823 14.3334C6.64581 14.4782 6.83624 14.6261 7.06878 14.6633C7.11638 14.726 6.99918 14.8472 7.09775 14.9007C7.15489 14.9241 7.34347 14.9632 7.21358 15.0282C7.12444 15.0882 7.15752 15.2282 7.27151 15.2251C7.34359 15.2619 7.5054 15.2709 7.51807 15.3346C7.45419 15.3996 7.25541 15.4767 7.4246 15.5376C7.58264 15.6253 7.7629 15.6822 7.94338 15.6884C7.8528 15.7646 7.74121 15.8079 7.64798 15.8796C8.06449 16.1238 8.52619 16.2844 8.98244 16.4391C9.16408 16.4998 9.34784 16.5564 9.53613 16.592C8.98899 16.5604 8.46016 16.3984 7.96183 16.1767C7.70355 16.0634 7.44353 15.954 7.17883 15.8564C7.29489 15.796 7.42913 15.7813 7.5495 15.729C7.29965 15.6789 7.02668 15.6625 6.80705 15.5252C6.84073 15.4651 6.96833 15.4623 7.0389 15.4317C7.17162 15.3999 7.25395 15.3613 7.06681 15.3498C6.87809 15.2986 6.66164 15.3216 6.49533 15.2077C6.50604 15.1395 6.6801 15.1633 6.75098 15.1338C6.84025 15.1184 6.9395 15.1056 7.01083 15.0455C6.71908 14.9246 6.33746 15.0103 6.10894 14.7526C6.05624 14.6545 6.2726 14.7335 6.33421 14.7172C6.49077 14.7172 6.65904 14.7669 6.80813 14.7038C6.383 14.5172 5.92763 14.3424 5.6034 13.9972C5.56741 13.9417 5.45955 13.7901 5.54657 13.7713C5.79893 13.8047 5.98158 14.0801 6.25151 14.0373C6.28737 13.9889 6.0947 13.9097 6.04661 13.8406C5.65305 13.5029 5.27108 13.1364 4.99524 12.694C4.97627 12.5463 5.20848 12.5242 5.26962 12.6382C5.5706 12.9281 5.84248 13.2664 6.21736 13.4643C6.35037 13.5288 6.14098 13.388 6.11309 13.3369C5.76671 12.9347 5.43696 12.5099 5.19487 12.0361C5.15154 11.9508 5.07973 11.7962 5.20937 11.7508C5.339 11.6858 5.46761 11.7743 5.53333 11.8856C5.78799 12.2068 5.97538 12.5886 6.29262 12.8562C6.02236 12.3317 5.73379 11.7796 5.72681 11.1761C5.73316 11.0591 5.74068 10.8821 5.89934 10.8869C6.03255 10.8667 6.01151 11.0373 6.05516 11.1186C6.18642 11.562 6.24365 12.0419 6.50696 12.4333C6.44881 12.1044 6.36319 11.7657 6.42007 11.4313C6.43318 11.3215 6.55678 11.2883 6.63746 11.3547C6.70269 11.5143 6.71627 11.7114 6.7757 11.8821C7.11385 13.0389 7.8731 14.0563 8.86252 14.739C9.67738 15.2979 10.6444 15.6316 11.6314 15.6897C11.7206 15.6975 11.8101 15.7002 11.8993 15.7057" fill="#FEC50C"/>
<path d="M10.6469 17.2393C10.6762 17.2393 10.7 17.2156 10.7 17.1862C10.7 17.1569 10.6762 17.1331 10.6469 17.1331C10.6175 17.1331 10.5938 17.1569 10.5938 17.1862C10.5938 17.2156 10.6175 17.2393 10.6469 17.2393Z" fill="#FEC50C"/>
<path d="M10.6428 17.1993C10.6547 17.1993 10.6644 17.1896 10.6644 17.1777C10.6644 17.1657 10.6547 17.156 10.6428 17.156C10.6308 17.156 10.6211 17.1657 10.6211 17.1777C10.6211 17.1896 10.6308 17.1993 10.6428 17.1993Z" fill="#FEC50C" stroke="#00AFCA" stroke-width="0.1905"/>
</svg>
