<svg width="48" height="48" viewBox="0 0 48 48" fill="none" xmlns="http://www.w3.org/2000/svg">
<rect x="8" y="7.99994" width="40" height="40" rx="3" fill="#68FACF"/>
<mask id="mask0_964_3128" style="mask-type:alpha" maskUnits="userSpaceOnUse" x="0" y="0" width="40" height="40">
<path d="M20 40C31.0457 40 40 31.0457 40 20C40 8.95431 31.0457 0 20 0C8.95431 0 0 8.95431 0 20C0 31.0457 8.95431 40 20 40Z" fill="#0099FF"/>
</mask>
<g mask="url(#mask0_964_3128)">
<path d="M20 40C31.0457 40 40 31.0457 40 20C40 8.95431 31.0457 0 20 0C8.95431 0 0 8.95431 0 20C0 31.0457 8.95431 40 20 40Z" fill="#0099FF"/>
</g>
<path d="M11.96 10.016V11.456H27.064V10.016H11.96ZM11.96 15.52H18.552V32H20.376V15.52H27.064V14.08H11.96V15.52Z" fill="white"/>
</svg>
