<svg width="48" height="51" viewBox="0 0 48 51" fill="none" xmlns="http://www.w3.org/2000/svg">
<rect x="8" y="11" width="40" height="40" rx="3" fill="#68FACF"/>
<path d="M22.636 1.05252C22.4226 1.10997 22.2767 1.20299 22.2173 1.32063C22.1957 1.3644 22.1687 1.57506 22.1498 1.83223C21.9337 4.86627 21.4663 6.95644 20.7154 8.24228C20.3345 8.89341 19.9617 9.30104 19.1352 9.96585C18.2167 10.7073 17.7089 11.2544 17.4361 11.7989C17.3956 11.8809 17.2416 12.2503 17.0903 12.6196C16.2799 14.6386 15.5641 16.1269 14.8321 17.3225C14.1162 18.4852 13.3518 19.3443 12.717 19.6945C12.4036 19.8668 12.2308 19.9024 11.731 19.9024H11V27.0839C11 31.0345 11 34.2655 11 34.2655C11 34.2655 11.469 34.2956 11.6581 34.3311C11.8499 34.3694 12.3361 34.4625 12.7386 34.5363C13.1438 34.6129 13.8002 34.736 14.1973 34.8127C18.9083 35.6991 18.4869 35.6279 19.3756 35.7018C20.6857 35.8085 22.1525 35.9015 23.6057 35.9672C24.6025 36.0109 27.3821 36.0109 28.0628 35.9672C29.4539 35.8742 30.294 35.7209 30.7911 35.4692C31.6663 35.0233 32.7954 33.9509 33.1492 33.2313L33.2627 32.9988L33.2789 32.0796C33.2897 31.4065 33.3032 31.1357 33.3302 31.0646C33.4086 30.8566 33.5841 30.6432 34.1541 30.0633C34.7916 29.4176 34.9807 29.1905 35.1266 28.8896C35.3427 28.4436 35.3102 28.1892 34.897 27.1523C34.6241 26.4629 34.5188 26.1127 34.5188 25.8829C34.5188 25.6011 34.6917 25.3139 35.2481 24.6764C35.8667 23.9651 36.0369 23.6669 35.9937 23.3605C35.9667 23.1553 35.8262 22.8571 35.5101 22.3318C34.9645 21.4208 34.8186 21.0788 34.8537 20.8079C34.8807 20.6082 35.005 20.3866 35.3454 19.9297C35.9477 19.1227 36.0261 18.964 35.9937 18.6001C35.9423 18.0174 35.4831 17.079 34.8888 16.3321C34.6646 16.0503 34.227 15.6208 34.019 15.4813C33.5625 15.1694 32.8818 15.0463 31.0207 14.9478C30.367 14.9122 27.4172 14.8986 25.4831 14.9232L24.3756 14.9369L24.3108 14.7453C24.1811 14.3678 24.2324 13.755 24.4539 13.0437C24.6727 12.3433 24.9374 11.7305 25.6695 10.2504C25.9585 9.66217 26.2476 9.06303 26.307 8.91529C26.5366 8.35445 26.7068 7.717 26.8121 7.00568C26.8715 6.62267 26.8796 5.26296 26.8256 4.92372C26.6284 3.68165 26.3043 2.8992 25.71 2.24808C24.9104 1.36988 23.5058 0.822712 22.636 1.05252Z" fill="#0099FF"/>
<rect x="2" y="17" width="9" height="19" rx="2" fill="#0099FF"/>
</svg>
