<svg width="37" height="36" viewBox="0 0 37 36" fill="none" xmlns="http://www.w3.org/2000/svg">
<path fill-rule="evenodd" clip-rule="evenodd" d="M14.766 2H14.7216H14.7216C13.079 1.99999 11.7851 1.99999 10.7438 2.08507C9.68144 2.17186 8.79428 2.35217 7.98808 2.76295C6.67095 3.43407 5.60008 4.50493 4.92897 5.82207C4.51819 6.62827 4.33788 7.51543 4.25108 8.57778C4.166 9.61909 4.16601 10.913 4.16602 12.5556V12.5556V12.6V28.4982C4.16602 29.88 4.38443 30.9964 4.86607 31.8265C5.37577 32.7048 6.14356 33.1951 7.03224 33.3341C7.86696 33.4646 8.73705 33.2762 9.52874 32.976C10.3327 32.6712 11.1413 32.2183 11.8894 31.7196C12.3365 31.4215 12.5525 31.3798 12.6737 31.3809C12.7981 31.382 13.0078 31.4297 13.4426 31.7196C14.7282 32.5766 15.8549 33.186 17.1019 33.2014C18.3551 33.2169 19.5203 32.6323 20.8894 31.7196C21.3365 31.4215 21.5525 31.3798 21.6737 31.3809C21.7981 31.382 22.0078 31.4297 22.4426 31.7196C22.9021 32.0259 23.523 31.9017 23.8293 31.4422C24.1357 30.9827 24.0115 30.3618 23.552 30.0555C22.9957 29.6846 22.3918 29.3872 21.6916 29.3809C20.988 29.3747 20.3683 29.6633 19.78 30.0555C18.4523 30.9406 17.7283 31.209 17.1267 31.2016C16.519 31.194 15.8254 30.9044 14.552 30.0555C13.9957 29.6846 13.3918 29.3872 12.6916 29.3809C11.988 29.3747 11.3683 29.6633 10.78 30.0555C10.11 30.5022 9.4383 30.8714 8.81974 31.1059C8.18887 31.3451 7.69406 31.4132 7.34116 31.3581C7.04222 31.3113 6.79966 31.1738 6.59593 30.8227C6.36413 30.4232 6.16602 29.7085 6.16602 28.4982V12.6C6.16602 10.9033 6.16679 9.69099 6.24444 8.74064C6.32113 7.80197 6.4678 7.20731 6.71098 6.73005C7.19035 5.78924 7.95525 5.02433 8.89606 4.54497C9.37333 4.30179 9.96799 4.15512 10.9067 4.07842C11.857 4.00078 13.0694 4 14.766 4H19.5659C21.2625 4 22.4749 4.00078 23.4252 4.07842C24.3639 4.15512 24.9586 4.30179 25.4358 4.54497C26.3766 5.02433 27.1416 5.78924 27.6209 6.73005C27.8716 7.22205 28.0049 7.66925 28.0788 8.35679C28.1377 8.90591 28.6307 9.30326 29.1798 9.24428C29.7289 9.18531 30.1263 8.69234 30.0673 8.14321C29.9709 7.24545 29.7778 6.55788 29.4029 5.82207C28.7318 4.50493 27.661 3.43407 26.3438 2.76295C25.5376 2.35217 24.6505 2.17186 23.5881 2.08507C22.5468 1.99999 21.2529 1.99999 19.6103 2H19.6103H19.5659H14.766ZM24.2747 11.2459L25.3113 13.3462C25.3248 13.3736 25.3391 13.4029 25.3541 13.4337L25.3544 13.4343C25.5061 13.7456 25.7361 14.2175 26.0956 14.6043C26.4042 14.9363 26.7742 15.2051 27.1852 15.396C27.6642 15.6184 28.1841 15.6913 28.527 15.7394C28.5612 15.7442 28.5937 15.7487 28.6242 15.7532L30.942 16.09C31.2544 16.1354 31.5165 16.1737 31.739 16.2082C31.5792 16.3668 31.3898 16.5519 31.1637 16.7722L29.4865 18.4071C29.4757 18.4176 29.4646 18.4284 29.4531 18.4396C29.4411 18.4512 29.4287 18.4631 29.416 18.4754C29.1668 18.7158 28.7891 19.0804 28.5323 19.5419C28.312 19.9379 28.1706 20.3729 28.1161 20.8228C28.0526 21.347 28.1439 21.864 28.2042 22.205C28.2102 22.239 28.2159 22.2713 28.2211 22.3017L28.617 24.6101C28.6704 24.9213 28.7149 25.1824 28.7509 25.4046C28.5506 25.3017 28.3161 25.1787 28.0366 25.0318L25.9635 23.9419C25.9481 23.9338 25.9322 23.9254 25.9157 23.9166C25.9031 23.9099 25.8901 23.903 25.8768 23.8959C25.5711 23.7333 25.1076 23.4867 24.5894 23.3851C24.1447 23.2979 23.6873 23.2979 23.2426 23.3851C22.7244 23.4867 22.2609 23.7333 21.9552 23.8959C21.9247 23.9122 21.8958 23.9276 21.8685 23.9419L19.7954 25.0318C19.516 25.1787 19.2814 25.3017 19.0812 25.4046C19.1172 25.1824 19.1617 24.9213 19.215 24.6101L19.611 22.3017C19.6162 22.2713 19.6219 22.239 19.6279 22.205C19.6881 21.864 19.7794 21.347 19.7159 20.8228C19.6614 20.3729 19.5201 19.9379 19.2997 19.5419C19.043 19.0804 18.6652 18.7158 18.416 18.4754C18.3912 18.4514 18.3676 18.4286 18.3455 18.4071L16.6683 16.7722C16.4423 16.5519 16.2528 16.3668 16.093 16.2082C16.3155 16.1737 16.5776 16.1354 16.89 16.09L19.2078 15.7532C19.2383 15.7487 19.2708 15.7442 19.305 15.7394C19.648 15.6913 20.1678 15.6184 20.6468 15.396C21.0578 15.2051 21.4279 14.9363 21.7364 14.6043C22.0959 14.2176 22.3259 13.7456 22.4776 13.4344L22.4776 13.4343C22.4928 13.4033 22.5071 13.3738 22.5208 13.3462L23.5573 11.2459C23.697 10.9628 23.8145 10.7254 23.916 10.5244C24.0175 10.7254 24.135 10.9628 24.2747 11.2459ZM32.7362 16.4105C32.7369 16.4108 32.7373 16.4109 32.7374 16.4109C32.7375 16.4108 32.7351 16.4098 32.7301 16.4079C32.733 16.4092 32.735 16.41 32.7362 16.4105ZM32.4234 15.4641C32.426 15.4596 32.4274 15.4574 32.4275 15.4573C32.4276 15.4573 32.4264 15.4595 32.4234 15.4641ZM28.8666 26.4151C28.8666 26.4162 28.8666 26.4167 28.8666 26.4168C28.8667 26.4169 28.8669 26.4143 28.8672 26.4089C28.8669 26.4118 28.8667 26.4138 28.8666 26.4151ZM29.6701 25.8256C29.6751 25.8267 29.6777 25.8274 29.6777 25.8274C29.6778 25.8275 29.6753 25.827 29.6701 25.8256ZM18.1543 25.8274C18.1544 25.8274 18.157 25.8267 18.162 25.8256C18.1567 25.827 18.1542 25.8275 18.1543 25.8274ZM18.9654 26.4168C18.9655 26.4167 18.9654 26.414 18.9648 26.4089C18.965 26.4121 18.9651 26.4143 18.9653 26.4155C18.9653 26.4164 18.9654 26.4168 18.9654 26.4168ZM15.4045 15.4573C15.4046 15.4574 15.4061 15.4596 15.4086 15.4641C15.4057 15.4595 15.4044 15.4573 15.4045 15.4573ZM15.0947 16.4109C15.0948 16.4109 15.0973 16.41 15.102 16.4079C15.0993 16.4089 15.0974 16.4097 15.0962 16.4102C15.0951 16.4106 15.0946 16.4109 15.0947 16.4109ZM24.4173 9.63758C24.4173 9.63769 24.4156 9.63979 24.4122 9.64358C24.4156 9.63937 24.4173 9.63748 24.4173 9.63758ZM23.4198 9.64357C23.4164 9.63979 23.4147 9.63769 23.4147 9.63758C23.4147 9.63748 23.4164 9.63937 23.4198 9.64357ZM21.7639 10.3608C22.4553 8.95971 22.801 8.25918 23.2704 8.03537C23.6788 7.84065 24.1532 7.84065 24.5616 8.03537C25.031 8.25918 25.3767 8.95971 26.0682 10.3608L27.1047 12.4611C27.3091 12.8751 27.4112 13.0821 27.5606 13.2427C27.6928 13.385 27.8514 13.5002 28.0275 13.582C28.2265 13.6744 28.4549 13.7076 28.9118 13.774L31.2296 14.1108C32.7758 14.3354 33.5488 14.4478 33.9067 14.825C34.2181 15.1532 34.3647 15.6044 34.3057 16.053C34.2379 16.5686 33.6785 17.1138 32.5597 18.2044L30.8825 19.8393L30.8825 19.8393C30.5519 20.1615 30.3866 20.3227 30.28 20.5143C30.1855 20.684 30.125 20.8705 30.1016 21.0633C30.0752 21.281 30.1143 21.5085 30.1923 21.9635L30.1923 21.9636L30.5882 24.272C30.8523 25.8119 30.9844 26.5819 30.7362 27.0389C30.5203 27.4364 30.1365 27.7153 29.6916 27.7978C29.1803 27.8926 28.4889 27.5291 27.1059 26.8021L25.0328 25.7122C24.6242 25.4973 24.4199 25.3899 24.2046 25.3477C24.014 25.3103 23.818 25.3103 23.6274 25.3477C23.4122 25.3899 23.2078 25.4973 22.7992 25.7122L20.7261 26.8021C19.3432 27.5291 18.6517 27.8926 18.1404 27.7978C17.6956 27.7153 17.3117 27.4364 17.0958 27.0389C16.8476 26.5819 16.9797 25.8119 17.2438 24.272L17.6397 21.9636C17.7178 21.5086 17.7568 21.281 17.7304 21.0633C17.7071 20.8705 17.6465 20.684 17.5521 20.5143C17.4454 20.3226 17.2801 20.1615 16.9495 19.8393L15.2723 18.2044C14.1535 17.1138 13.5941 16.5686 13.5263 16.053C13.4673 15.6044 13.6139 15.1532 13.9253 14.825C14.2832 14.4478 15.0563 14.3354 16.6024 14.1108L18.9202 13.774H18.9203C19.3771 13.7076 19.6056 13.6744 19.8045 13.582C19.9807 13.5002 20.1393 13.385 20.2715 13.2427C20.4208 13.0821 20.523 12.8751 20.7273 12.4611L21.7639 10.3608Z" fill="#141A33"/>
</svg>
